HIERARCHY
ROOT Hips
{
	OFFSET 0.000000 0.000000 0.000000
	CHANNELS 6 Xposition Yposition Zposition Xrotation Yrotation Zrotation
	JOINT LeftUpLeg_virtual
	{
		OFFSET 0.000000 0.000000 0.000000
		CHANNELS 3 Xrotation Yrotation Zrotation
		JOINT LeftUpLeg
		{
			OFFSET 11.394100 -6.187798 -0.413800
			CHANNELS 3 Xrotation Yrotation Zrotation
			JOINT LeftLeg
			{
				OFFSET 0.430247 -32.302673 3.732800
				CHANNELS 3 Xrotation Yrotation Zrotation
				JOINT LeftFoot
				{
					OFFSET -0.430247 -48.264931 -6.423300
					CHANNELS 3 Xrotation Yrotation Zrotation
					JOINT LeftToeBase
					{
						OFFSET 4.230900 -16.068199 23.438400
						CHANNELS 3 Xrotation Yrotation Zrotation
						JOINT LeftToe_End
						{
							OFFSET 4.510700 0.695400 19.974600
							CHANNELS 3 Xrotation Yrotation Zrotation
							End Site
							{
								OFFSET 0 0 0
							}
						}
					}
				}
			}
		}
	}
	JOINT RightUpLeg_virtual
	{
		OFFSET 0.000000 0.000000 0.000000
		CHANNELS 3 Xrotation Yrotation Zrotation
		JOINT RightUpLeg
		{
			OFFSET -11.333700 -6.187798 -0.413800
			CHANNELS 3 Xrotation Yrotation Zrotation
			JOINT RightLeg
			{
				OFFSET -0.430392 -32.302628 3.733000
				CHANNELS 3 Xrotation Yrotation Zrotation
				JOINT RightFoot
				{
					OFFSET 0.430392 -48.264973 -6.423500
					CHANNELS 3 Xrotation Yrotation Zrotation
					JOINT RightToeBase
					{
						OFFSET -4.230900 -16.068199 23.438400
						CHANNELS 3 Xrotation Yrotation Zrotation
						JOINT RightToe_End
						{
							OFFSET -4.510700 0.695400 19.974600
							CHANNELS 3 Xrotation Yrotation Zrotation
							End Site
							{
								OFFSET 0 0 0
							}
						}
					}
				}
			}
		}
	}
	JOINT Spine_virtual
	{
		OFFSET 0.000000 0.000000 0.000000
		CHANNELS 3 Xrotation Yrotation Zrotation
		JOINT Spine
		{
			OFFSET -0.002400 12.777504 0.315300
			CHANNELS 3 Xrotation Yrotation Zrotation
			JOINT Spine1
			{
				OFFSET -0.002067 5.816869 0.032633
				CHANNELS 3 Xrotation Yrotation Zrotation
				JOINT Spine1_split
				{
					OFFSET -0.002067 5.816869 0.032633
					CHANNELS 3 Xrotation Yrotation Zrotation
					JOINT Spine2
					{
						OFFSET -0.002067 5.816869 0.032633
						CHANNELS 3 Xrotation Yrotation Zrotation
						JOINT Neck_virtual
						{
							OFFSET 0.000000 0.000000 0.000000
							CHANNELS 3 Xrotation Yrotation Zrotation
							JOINT Neck
							{
								OFFSET -0.003700 21.199493 -0.826900
								CHANNELS 3 Xrotation Yrotation Zrotation
								JOINT Head
								{
									OFFSET 0.000000 20.442200 4.834800
									CHANNELS 3 Xrotation Yrotation Zrotation
									JOINT HeadTop_End
									{
										OFFSET 0.000000 34.668396 4.968400
										CHANNELS 3 Xrotation Yrotation Zrotation
										End Site
										{
											OFFSET 0 0 0
										}
									}
								}
							}
						}
						JOINT LeftShoulder_virtual
						{
							OFFSET 0.000000 0.000000 0.000000
							CHANNELS 3 Xrotation Yrotation Zrotation
							JOINT LeftShoulder
							{
								OFFSET 3.288150 8.794197 -1.372250
								CHANNELS 3 Xrotation Yrotation Zrotation
								JOINT LeftShoulder_split
								{
									OFFSET 3.288150 8.794197 -1.372250
									CHANNELS 3 Xrotation Yrotation Zrotation
									JOINT LeftArm
									{
										OFFSET 11.953299 -2.279007 -0.146200
										CHANNELS 3 Xrotation Yrotation Zrotation
										JOINT LeftForeArm
										{
											OFFSET 18.448900 0.000000 0.000000
											CHANNELS 3 Xrotation Yrotation Zrotation
											JOINT LeftHand
											{
												OFFSET 29.527798 0.000000 0.000000
												CHANNELS 3 Xrotation Yrotation Zrotation
												End Site
												{
													OFFSET 0 0 0
												}
											}
										}
									}
								}
							}
						}
						JOINT RightShoulder_virtual
						{
							OFFSET 0.000000 0.000000 0.000000
							CHANNELS 3 Xrotation Yrotation Zrotation
							JOINT RightShoulder
							{
								OFFSET -3.249400 8.794197 -1.372250
								CHANNELS 3 Xrotation Yrotation Zrotation
								JOINT RightShoulder_split
								{
									OFFSET -3.249400 8.794197 -1.372250
									CHANNELS 3 Xrotation Yrotation Zrotation
									JOINT RightArm
									{
										OFFSET -11.953299 -2.279007 -0.146200
										CHANNELS 3 Xrotation Yrotation Zrotation
										JOINT RightForeArm
										{
											OFFSET -18.448900 0.000000 0.000000
											CHANNELS 3 Xrotation Yrotation Zrotation
											JOINT RightHand
											{
												OFFSET -29.527802 0.000000 0.000000
												CHANNELS 3 Xrotation Yrotation Zrotation
												End Site
												{
													OFFSET 0 0 0
												}
											}
										}
									}
								}
							}
						}
					}
				}
			}
		}
	}
}
MOTION
Frames: 9
Frame Time: 0.03333333
9.902535 100.018547 13.726280 0.000000 0.000000 0.000000 -1.303161 6.057536 -5.384630 0.730148 10.602973 9.080174 17.025006 -7.190574 -0.394653 -17.733601 2.266303 -0.993261 -0.000033 0.013876 -0.000003 0.000000 0.000000 0.000000 -1.303161 6.057536 -5.384630 -34.564627 -6.771083 -2.568886 32.571167 -0.025094 1.146309 1.966496 0.721834 7.375679 2.226798 -0.483390 -0.382523 0.000000 0.000000 0.000000 -1.303161 6.057536 -5.384630 9.995941 -1.447663 2.815212 1.871314 -1.420407 1.481033 0.000000 0.000000 0.000000 0.000000 0.000000 0.000000 -3.085456 -1.618651 0.047467 -2.263183 -2.413852 6.433473 -4.853450 1.032562 -5.132382 0.000000 0.000000 0.000000 -3.085456 -1.618651 0.047467 1.744050 -3.421885 -0.743977 0.000000 0.000000 0.000000 -7.039697 -12.744834 -76.200008 9.887314 -11.719663 -4.534057 0.000000 0.000000 0.000000 -3.085456 -1.618651 0.047467 2.245579 4.208256 6.197044 0.000000 0.000000 0.000000 0.519971 4.376571 72.028819 11.172626 15.288352 2.172148 0.000000 0.000000 0.000000 
9.835575 99.890244 15.452822 0.000000 0.000000 0.000000 -1.031352 6.267836 -5.629371 2.249802 10.347935 9.336180 15.986973 -6.928933 -0.369707 -18.381268 2.376782 -1.368505 -0.235825 -0.053464 0.107680 0.000000 0.000000 0.000000 -1.031352 6.267836 -5.629371 -32.143406 -7.227458 -1.704868 24.076075 2.162940 1.193850 -0.352000 0.697711 6.694276 2.816720 -1.971481 -0.307398 0.000000 0.000000 0.000000 -1.031352 6.267836 -5.629371 10.275177 -1.579449 2.650711 1.530881 -1.655980 1.713172 0.000000 0.000000 0.000000 0.000000 0.000000 0.000000 -3.029678 -1.822409 0.405165 -2.777378 -2.362638 6.163047 -5.001022 1.132729 -5.650764 0.000000 0.000000 0.000000 -3.029678 -1.822409 0.405165 1.734723 -2.975679 -1.007657 0.000000 0.000000 0.000000 -6.950065 -13.745417 -75.686849 9.739460 -12.702266 -4.881119 0.000000 0.000000 0.000000 -3.029678 -1.822409 0.405165 2.341272 3.697851 6.000392 0.000000 0.000000 0.000000 0.577669 4.244791 72.228492 11.271328 14.839602 2.930563 0.000000 0.000000 0.000000 
9.678288 99.727722 17.339731 0.000000 0.000000 0.000000 -0.710471 6.607848 -5.709378 3.480947 10.084251 9.665123 15.386085 -7.022003 -0.494805 -18.904946 2.605972 -1.662242 -0.869007 -0.116172 0.259666 0.000000 0.000000 0.000000 -0.710471 6.607848 -5.709378 -30.051500 -7.588046 -1.373114 16.704307 2.689309 1.497592 -2.284855 1.447813 5.811131 3.434465 -2.331934 -0.245678 0.000000 0.000000 0.000000 -0.710471 6.607848 -5.709378 10.739542 -1.732110 2.308064 0.862137 -1.917848 2.026344 0.000000 0.000000 0.000000 0.000000 0.000000 0.000000 -3.297928 -2.045511 0.855363 -2.624586 -2.258870 5.439390 -5.463569 1.111055 -5.993753 0.000000 0.000000 0.000000 -3.297928 -2.045511 0.855363 1.733737 -2.483402 -1.370494 0.000000 0.000000 0.000000 -6.732599 -14.418225 -75.287857 10.256402 -13.631163 -5.186329 0.000000 0.000000 0.000000 -3.297928 -2.045511 0.855363 2.386605 3.103078 5.622621 0.000000 0.000000 0.000000 1.342289 4.454616 72.514684 10.835918 14.812589 3.464584 0.000000 0.000000 0.000000 
9.438079 99.458275 19.385044 0.000000 0.000000 0.000000 -0.466952 7.043239 -5.570340 4.721580 9.882100 9.896861 15.054557 -7.102373 -0.592232 -19.475176 2.761606 -2.060292 -1.767383 -0.293829 0.559958 0.000000 0.000000 0.000000 -0.466952 7.043239 -5.570340 -29.082665 -8.012966 -0.769986 12.138019 3.624241 0.809763 -4.851762 1.199506 4.722702 4.567333 -2.215466 0.162105 0.000000 0.000000 0.000000 -0.466952 7.043239 -5.570340 11.196155 -1.949000 1.872149 0.235686 -2.232094 2.351253 0.000000 0.000000 0.000000 0.000000 0.000000 0.000000 -3.522573 -2.316607 1.321168 -2.346559 -2.015607 4.576850 -6.100115 1.082042 -5.984655 0.000000 0.000000 0.000000 -3.522573 -2.316607 1.321168 1.744293 -1.890688 -2.064281 0.000000 0.000000 0.000000 -6.496880 -15.195419 -74.597318 10.432924 -14.507998 -5.621011 0.000000 0.000000 0.000000 -3.522573 -2.316607 1.321168 2.430738 3.001840 5.025310 0.000000 0.000000 0.000000 2.288177 4.957963 72.956795 9.695932 15.072115 3.859004 0.000000 0.000000 0.000000 
9.142784 99.123024 21.632870 0.000000 0.000000 0.000000 -0.142720 7.640896 -5.392238 5.919585 9.568412 10.151592 14.836417 -6.867680 -0.630464 -20.038617 2.804723 -2.671734 -2.601322 -0.720271 1.044489 0.000000 0.000000 0.000000 -0.142720 7.640896 -5.392238 -28.807767 -8.491842 -0.708977 9.057878 3.752017 0.515017 -5.665983 0.852331 4.181441 3.874321 -2.217029 -0.191089 0.000000 0.000000 0.000000 -0.142720 7.640896 -5.392238 11.471423 -2.170444 1.742811 -0.267878 -2.505729 2.438228 0.000000 0.000000 0.000000 0.000000 0.000000 0.000000 -3.639367 -2.552968 1.545706 -2.540636 -1.937425 4.132870 -6.546498 1.079399 -6.140815 0.000000 0.000000 0.000000 -3.639367 -2.552968 1.545706 1.771422 -1.312999 -2.562466 0.000000 0.000000 0.000000 -6.915104 -15.688075 -74.148609 10.629458 -15.033024 -6.181480 0.000000 0.000000 0.000000 -3.639367 -2.552968 1.545706 2.484943 2.727735 4.797701 0.000000 0.000000 0.000000 2.953611 5.669617 73.191406 8.978887 15.443452 4.100325 0.000000 0.000000 0.000000 
8.761073 98.627159 24.062134 0.000000 0.000000 0.000000 -0.039182 8.095431 -5.109323 7.663436 9.438765 10.308306 14.353806 -8.138553 -0.759009 -20.818992 4.279011 -2.695229 -3.373040 -1.161270 1.270145 0.000000 0.000000 0.000000 -0.039182 8.095431 -5.109323 -29.592180 -8.788857 -0.879233 9.006989 3.986215 0.468727 -6.121677 0.651734 3.159922 4.964853 -2.744300 -0.319017 0.000000 0.000000 0.000000 -0.039182 8.095431 -5.109323 12.005230 -2.337021 1.520905 -0.697592 -2.737816 2.600813 0.000000 0.000000 0.000000 0.000000 0.000000 0.000000 -3.688902 -2.736438 1.848267 -3.181364 -1.758249 3.671367 -7.056056 1.222111 -6.453506 0.000000 0.000000 0.000000 -3.688902 -2.736438 1.848267 1.797105 -0.815836 -3.374227 0.000000 0.000000 0.000000 -7.440935 -15.961824 -73.641030 11.242134 -15.683036 -6.492509 0.000000 0.000000 0.000000 -3.688902 -2.736438 1.848267 2.535505 2.578136 4.509840 0.000000 0.000000 0.000000 2.885986 5.757751 73.375616 8.576644 15.662384 4.279675 0.000000 0.000000 0.000000 
8.256308 98.057076 26.786823 0.000000 0.000000 0.000000 0.044541 8.351807 -4.775453 8.919886 9.308429 10.679884 14.948724 -8.286701 -0.826680 -21.466142 4.891889 -3.339718 -4.991116 -1.774039 1.497400 0.000000 0.000000 0.000000 0.044541 8.351807 -4.775453 -32.200893 -8.833183 -1.544738 13.165584 3.735579 0.832211 -5.754143 0.906794 2.447618 5.815659 -3.369807 -0.577318 0.000000 0.000000 0.000000 0.044541 8.351807 -4.775453 12.372124 -2.392942 1.908315 -1.060287 -2.678121 1.991262 0.000000 0.000000 0.000000 0.000000 0.000000 0.000000 -3.720846 -2.671222 1.359483 -3.869726 -2.177311 4.922017 -7.364443 1.585025 -7.568341 0.000000 0.000000 0.000000 -3.720846 -2.671222 1.359483 1.768131 -0.999048 -2.674479 0.000000 0.000000 0.000000 -7.807289 -15.922657 -73.792961 11.902945 -16.455635 -6.599649 0.000000 0.000000 0.000000 -3.720846 -2.671222 1.359483 2.575989 1.858235 5.930295 0.000000 0.000000 0.000000 3.132313 6.965191 72.543303 8.164165 16.111889 4.419314 0.000000 0.000000 0.000000 
7.634490 97.694206 29.789467 0.000000 0.000000 0.000000 -0.062951 8.587341 -4.306130 10.894059 8.972335 10.980963 14.834872 -8.221914 -0.970536 -21.227991 5.786538 -4.208281 -7.548185 -2.630060 1.423734 0.000000 0.000000 0.000000 -0.062951 8.587341 -4.306130 -32.817102 -8.805751 -1.982700 15.100717 3.704478 1.350144 -0.833588 1.641750 1.281655 3.657334 -4.136401 -0.301614 0.000000 0.000000 0.000000 -0.062951 8.587341 -4.306130 13.106965 -2.503719 1.891201 -1.621722 -2.745519 1.772020 0.000000 0.000000 0.000000 0.000000 0.000000 0.000000 -3.943640 -2.712255 1.273779 -4.668431 -2.031046 4.938780 -6.900693 1.728086 -7.503969 0.000000 0.000000 0.000000 -3.943640 -2.712255 1.273779 1.817416 -0.486510 -2.569394 0.000000 0.000000 0.000000 -7.445512 -16.441213 -73.688288 11.501759 -17.237994 -6.954235 0.000000 0.000000 0.000000 -3.943640 -2.712255 1.273779 2.636077 1.414697 6.369677 0.000000 0.000000 0.000000 3.201243 8.163650 72.080305 7.311543 16.021211 5.021454 0.000000 0.000000 0.000000 
6.942973 97.432167 33.023636 0.000000 0.000000 0.000000 0.102855 8.709456 -4.070131 12.033186 7.858237 11.493304 15.828000 -7.473498 -0.927634 -20.420536 6.766313 -5.490474 -11.366322 -3.387439 0.681620 0.000000 0.000000 0.000000 0.102855 8.709456 -4.070131 -33.915636 -8.812674 -2.028368 17.539979 3.671353 1.709768 4.933835 2.271334 -0.179015 2.342501 -3.274315 0.093039 0.000000 0.000000 0.000000 0.102855 8.709456 -4.070131 13.284621 -2.536056 2.011530 -2.095756 -2.817796 1.711168 0.000000 0.000000 0.000000 0.000000 0.000000 0.000000 -4.094575 -2.754248 1.330579 -5.358864 -1.690189 4.544433 -6.740700 1.850105 -7.189495 0.000000 0.000000 0.000000 -4.094575 -2.754248 1.330579 1.881691 0.113705 -3.388257 0.000000 0.000000 0.000000 -7.277085 -16.681576 -72.967826 11.416841 -17.585068 -7.412429 0.000000 0.000000 0.000000 -4.094575 -2.754248 1.330579 2.711987 1.010810 6.365195 0.000000 0.000000 0.000000 3.109644 9.284525 71.798279 6.979025 16.173179 5.335637 0.000000 0.000000 0.000000 
